<?xml version="1.0" encoding="UTF-8" standalone="no"?><svg xmlns="http://www.w3.org/2000/svg" xmlns:xlink="http://www.w3.org/1999/xlink" style="isolation:isolate" viewBox="0 0 100 100" width="100pt" height="100pt"><defs><clipPath id="_clipPath_kOYAfqRaIEOUre6rBZhxsHOWqlzpl5D7"><rect width="100" height="100"/></clipPath></defs><g clip-path="url(#_clipPath_kOYAfqRaIEOUre6rBZhxsHOWqlzpl5D7)"><rect width="100" height="100" style="fill:rgb(0,0,0)" fill-opacity="0"/><g><g><path d=" M 100 18.75 C 100 28.555 88.457 43.184 83.477 49.023 C 82.734 49.883 81.641 50.215 80.645 50 L 62.5 50 C 59.043 50 56.25 52.793 56.25 56.25 C 56.25 59.707 59.043 62.5 62.5 62.5 L 81.25 62.5 C 91.602 62.5 100 70.898 100 81.25 C 100 91.602 91.602 100 81.25 100 L 40 100 C 41.699 98.066 43.465 95.586 45.555 92.813 C 46.785 91.172 48.055 89.375 49.266 87.5 L 81.25 87.5 C 84.707 87.5 87.5 84.707 87.5 81.25 C 87.5 77.793 84.707 75 81.25 75 L 62.5 75 C 52.148 75 43.75 66.602 43.75 56.25 C 43.75 45.898 52.148 37.5 62.5 37.5 L 70.273 37.5 C 66.172 31.348 62.5 24.277 62.5 18.75 C 62.5 8.398 70.898 0 81.25 0 C 91.602 0 100 8.398 100 18.75 Z  M 81.25 25 C 84.702 25 87.5 22.202 87.5 18.75 C 87.5 15.298 84.702 12.5 81.25 12.5 C 77.798 12.5 75 15.298 75 18.75 C 75 22.202 77.798 25 81.25 25 Z " fill-rule="evenodd" fill="rgb(248,97,38)"/><path d=" M 84.247 48.247 L 83.055 49.488 C 81.883 50.411 80.143 50.19 79.088 49.027 C 74.167 43.53 62.487 29.388 62.487 19.258 C 62.487 8.626 70.885 0 81.237 0 C 91.588 0 99.987 8.626 99.987 19.258 C 99.987 25.276 95.866 32.698 91.491 38.896 C 89.401 41.845 87.253 44.513 85.475 46.619 L 84.247 48.247 Z  M 87 18.581 C 87 15.319 84.426 12.675 81.25 12.675 C 78.074 12.675 75.5 15.319 75.5 18.581 C 75.5 21.842 78.074 24.486 81.25 24.486 C 84.426 24.486 87 21.842 87 18.581 Z " fill-rule="evenodd" fill="rgb(150,43,72)"/></g><path d=" M 3.875 63 C 1.736 63 0 64.736 0 66.875 C 0 68.094 0.573 69.24 1.55 69.975 L 19.117 83.15 C 20.037 83.836 21.296 83.836 22.217 83.15 L 39.783 69.975 C 40.76 69.24 41.333 68.094 41.333 66.875 C 41.333 64.736 39.598 63 37.458 63 L 3.875 63 Z  M 0 72.042 L 0 88.833 C 0 91.683 2.317 94 5.167 94 L 36.167 94 C 39.016 94 41.333 91.683 41.333 88.833 L 41.333 72.042 L 23.767 85.217 C 21.926 86.597 19.407 86.597 17.567 85.217 L 0 72.042 Z " fill="rgb(150,43,72)"/></g></g></svg>